<?xml version="1.0" encoding="UTF-8" standalone="no"?>
<!-- Created with Inkscape (http://www.inkscape.org/) -->

<svg
   width="500"
   height="425"
   viewBox="0 0 132.29167 112.44792"
   version="1.1"
   id="svg1"
   inkscape:version="1.4 (e7c3feb100, 2024-10-09)"
   sodipodi:docname="hit_masks01.svg"
   xmlns:inkscape="http://www.inkscape.org/namespaces/inkscape"
   xmlns:sodipodi="http://sodipodi.sourceforge.net/DTD/sodipodi-0.dtd"
   xmlns="http://www.w3.org/2000/svg"
   xmlns:svg="http://www.w3.org/2000/svg">
  <sodipodi:namedview
     id="namedview1"
     pagecolor="#565656"
     bordercolor="#000000"
     borderopacity="0.25"
     inkscape:showpageshadow="2"
     inkscape:pageopacity="0.0"
     inkscape:pagecheckerboard="0"
     inkscape:deskcolor="#d1d1d1"
     inkscape:document-units="mm"
     inkscape:zoom="1.0356019"
     inkscape:cx="267.96011"
     inkscape:cy="242.37112"
     inkscape:window-width="1920"
     inkscape:window-height="1003"
     inkscape:window-x="1920"
     inkscape:window-y="0"
     inkscape:window-maximized="1"
     inkscape:current-layer="layer1"
     showgrid="false" />
  <defs
     id="defs1" />
  <g
     inkscape:label="Layer 1"
     inkscape:groupmode="layer"
     id="layer1"
     transform="translate(-5.8869846,-181.98816)">
    <g
       id="g1"
       transform="matrix(1.0258669,0,0,0.87198562,-0.15227804,23.297102)"
       style="stroke-width:1.0573">
      <path
         id="path53"
         style="opacity:1;fill:#ffffff;stroke-width:3.17192;stroke-linecap:round;stroke-linejoin:round;paint-order:stroke markers fill"
         d="m 73.589069,185.54874 v 8.01036 c 2.17e-4,0.89055 -0.721791,1.61254 -1.612345,1.61234 -0.890257,-2.2e-4 -1.611773,-0.72209 -1.611556,-1.61234 v -4.75971 h -1.612344 -1.611556 v 1.50098 c -2.17e-4,0.89026 -0.72208,1.61178 -1.612341,1.61155 -0.890021,-1.1e-4 -1.611537,-0.72153 -1.611754,-1.61155 v -1.50098 h -1.612344 -1.611557 v 1.50098 c -2.17e-4,0.89026 -0.722079,1.61178 -1.61234,1.61155 h -1.611556 v 15.86744 h 25.791192 v -18.97997 h -3.223504 v 4.75971 c 2.17e-4,0.89057 -0.721775,1.61256 -1.612345,1.61234 -0.890329,-1.2e-4 -1.611971,-0.72201 -1.611754,-1.61234 v -8.01036 h -1.61234 z"
         sodipodi:nodetypes="ccsccccccccccccccccccccccc" />
      <path
         d="m 5.8869884,181.98826 v 25.79119 H 31.678181 v -25.79119 z"
         style="opacity:1;fill:#ffffff;stroke-width:3.17192;stroke-linecap:round;stroke-linejoin:round;paint-order:stroke markers fill"
         id="path51" />
      <path
         id="path52"
         style="opacity:1;fill:#ffffff;stroke-width:3.17192;stroke-linecap:round;stroke-linejoin:round;paint-order:stroke markers fill"
         d="m 31.678181,181.98816 v 25.7912 h 25.791195 v -25.7912 h -3.22823 v 2.0478 c -2.17e-4,0.89026 -0.722084,1.61178 -1.612345,1.61155 -0.889948,-2.1e-4 -1.611335,-0.7216 -1.611552,-1.61155 v -2.0478 h -3.242593 v 2.0478 c -2.17e-4,0.88995 -0.721607,1.61134 -1.611556,1.61155 h -1.612344 v 1.4077 c 2.17e-4,0.89033 -0.721425,1.61223 -1.611754,1.61235 -0.89057,2.2e-4 -1.612558,-0.72178 -1.612341,-1.61235 v -5.06705 h -3.19635 v 1.88113 c 2.17e-4,0.89057 -0.721775,1.61257 -1.612344,1.61235 -0.890257,-2.2e-4 -1.611773,-0.72209 -1.611556,-1.61235 v -1.88113 z" />
      <path
         id="path54"
         style="opacity:1;fill:#ffffff;stroke-width:3.17192;stroke-linecap:round;stroke-linejoin:round;paint-order:stroke markers fill"
         d="m 107.43981,201.20051 c -0.89057,2.2e-4 -1.61256,-0.72178 -1.61234,-1.61235 v -1.52537 h -1.61175 -1.61235 v 1.52537 c 2.2e-4,0.89026 -0.7213,1.61213 -1.61155,1.61235 -0.89057,2.2e-4 -1.612564,-0.72178 -1.612347,-1.61235 v -4.78429 h -1.611556 -1.612341 v 1.64737 c -2.17e-4,0.88995 -0.721607,1.61134 -1.611556,1.61155 h -1.611754 v 1.52537 c 2.17e-4,0.89057 -0.721775,1.61257 -1.612344,1.61235 -0.890257,-2.2e-4 -1.611774,-0.72209 -1.611557,-1.61235 v -1.52537 h -1.61234 c -0.889949,-2.1e-4 -1.611339,-0.7216 -1.611556,-1.61155 v -1.64737 h -3.223901 v 12.97549 h 25.791192 l -3.3e-4,-6.57886 z"
         sodipodi:nodetypes="ccccccsccccccccscccccccccc" />
      <path
         id="path55"
         style="opacity:1;fill:#ffffff;stroke-width:3.17192;stroke-linecap:round;stroke-linejoin:round;paint-order:stroke markers fill"
         d="m 131.61906,198.05586 v 4.83431 c 2.1e-4,0.89057 -0.72178,1.61257 -1.61235,1.61235 -0.89025,-2.2e-4 -1.61177,-0.72209 -1.61155,-1.61235 v -1.68967 h -1.61234 c -0.89026,-2.2e-4 -1.61178,-0.72209 -1.61156,-1.61235 v -1.52537 h -3.2239 v 4.82739 c 2.2e-4,0.89057 -0.72178,1.61257 -1.61235,1.61235 -0.89032,-1.2e-4 -1.61196,-0.72202 -1.61175,-1.61235 v -1.68967 h -1.61234 -1.61156 v 1.68967 c 2.2e-4,0.89057 -0.72177,1.61257 -1.61234,1.61235 -0.89026,-2.2e-4 -1.61177,-0.72209 -1.61156,-1.61235 v -1.68967 l -3.2237,-1e-5 v 6.57885 h 25.7912 v -9.72348 z"
         sodipodi:nodetypes="ccscccccccccccccsccccccc" />
      <path
         id="path142"
         style="opacity:1;fill:#ffffff;stroke-width:3.17192;stroke-linecap:round;stroke-linejoin:round;paint-order:stroke markers fill"
         d="m 73.589069,211.33997 v 8.01036 c 2.17e-4,0.89055 -0.721791,1.61254 -1.612345,1.61234 -0.890257,-2.2e-4 -1.611773,-0.72209 -1.611556,-1.61234 v -4.7597 h -1.612344 -1.611556 v 1.50097 c -2.17e-4,0.89026 -0.72208,1.61178 -1.612341,1.61155 -0.890021,-1.1e-4 -1.611537,-0.72153 -1.611754,-1.61155 v -1.50097 h -1.612344 -1.611557 v 1.50097 c -2.17e-4,0.89026 -0.722079,1.61178 -1.61234,1.61155 h -1.611556 v 15.86744 h 3.228226 v -2.0478 c 2.13e-4,-0.89026 0.72208,-1.61178 1.612344,-1.61156 0.889949,2.2e-4 1.611339,0.72161 1.611556,1.61156 v 2.0478 h 3.242593 v -2.0478 c 2.13e-4,-0.88995 0.721612,-1.61134 1.611556,-1.61156 h 1.612345 v -1.4077 c -2.17e-4,-0.89033 0.721421,-1.61223 1.61175,-1.61234 0.890565,-2.3e-4 1.612565,0.72177 1.612344,1.61234 v 5.06706 h 3.196352 v -1.88113 c -2.17e-4,-0.89057 0.721779,-1.61257 1.612344,-1.61235 0.890261,2.2e-4 1.611773,0.72209 1.611556,1.61235 v 1.88113 h 3.228226 v -18.97996 h -3.223504 v 4.7597 c 2.17e-4,0.89057 -0.721775,1.61257 -1.612345,1.61234 -0.890329,-1.1e-4 -1.611971,-0.72201 -1.611754,-1.61234 v -8.01036 h -1.61234 z" />
      <path
         id="path145"
         style="opacity:1;fill:#ffffff;stroke-width:3.17192;stroke-linecap:round;stroke-linejoin:round;paint-order:stroke markers fill"
         d="m 83.260568,220.5951 v 12.97549 h 3.22823 v -2.0478 c 2.13e-4,-0.89026 0.722076,-1.61178 1.612341,-1.61156 0.889948,2.2e-4 1.611339,0.72161 1.611556,1.61156 v 2.0478 h 3.242593 v -2.0478 c 2.13e-4,-0.88995 0.721611,-1.61134 1.611556,-1.61156 h 1.612344 v -1.4077 c -2.17e-4,-0.89033 0.721425,-1.61223 1.611754,-1.61234 0.890566,-2.3e-4 1.612562,0.72177 1.612341,1.61234 v 5.06706 h 3.196347 v -1.88113 c -2.1e-4,-0.89057 0.72178,-1.61257 1.61235,-1.61235 0.89026,2.2e-4 1.61177,0.72209 1.61155,1.61235 v 1.88113 h 3.22823 l -3.8e-4,-6.57885 h -1.61156 c -0.89057,2.2e-4 -1.61256,-0.72177 -1.61234,-1.61234 v -1.52537 h -1.61175 -1.61235 v 1.52537 c 2.2e-4,0.89025 -0.72129,1.61212 -1.61155,1.61234 -0.89057,2.2e-4 -1.612563,-0.72177 -1.612346,-1.61234 v -4.7843 h -1.611556 -1.61234 v 1.64737 c -2.17e-4,0.88995 -0.721608,1.61134 -1.611556,1.61156 h -1.611755 v 1.52537 c 2.17e-4,0.89057 -0.721775,1.61256 -1.612344,1.61234 -0.890257,-2.2e-4 -1.611773,-0.72209 -1.611556,-1.61234 v -1.52537 h -1.612341 c -0.889948,-2.2e-4 -1.611339,-0.72161 -1.611556,-1.61156 v -1.64737 z" />
      <path
         id="path144"
         style="opacity:1;fill:#ffffff;stroke-width:3.17192;stroke-linecap:round;stroke-linejoin:round;paint-order:stroke markers fill"
         d="m 31.678181,207.77939 v 25.7912 h 3.22823 v -2.0478 c 2.13e-4,-0.89026 0.72208,-1.61178 1.612344,-1.61156 0.889949,2.2e-4 1.611339,0.72161 1.611556,1.61156 v 2.0478 h 3.242591 v -2.0478 c 2.14e-4,-0.88995 0.721612,-1.61134 1.611557,-1.61156 h 1.61234 v -1.4077 c -2.17e-4,-0.89033 0.721425,-1.61223 1.611754,-1.61234 0.890566,-2.3e-4 1.612566,0.72177 1.612345,1.61234 v 5.06706 h 3.196351 v -1.88113 c -2.17e-4,-0.89057 0.721775,-1.61257 1.612341,-1.61235 0.89026,2.2e-4 1.611773,0.72209 1.611556,1.61235 v 1.88113 h 3.22823 v -25.7912 h -3.22823 v 2.0478 c -2.17e-4,0.89026 -0.722084,1.61178 -1.612345,1.61156 -0.889948,-2.2e-4 -1.611335,-0.72161 -1.611552,-1.61156 v -2.0478 h -3.242593 v 2.0478 c -2.17e-4,0.88995 -0.721607,1.61134 -1.611556,1.61156 h -1.612344 v 1.4077 c 2.17e-4,0.89033 -0.721425,1.61223 -1.611754,1.61234 -0.89057,2.2e-4 -1.612558,-0.72177 -1.612341,-1.61234 v -5.06706 h -3.19635 v 1.88114 c 2.17e-4,0.89057 -0.721775,1.61256 -1.612344,1.61234 -0.890257,-2.2e-4 -1.611773,-0.72209 -1.611556,-1.61234 v -1.88114 z" />
      <path
         id="path147"
         style="opacity:1;fill:#ffffff;stroke-width:3.17192;stroke-linecap:round;stroke-linejoin:round;paint-order:stroke markers fill"
         d="m 73.589069,237.13116 v 8.01036 c 2.17e-4,0.89055 -0.721791,1.61255 -1.612345,1.61234 -0.890257,-2.1e-4 -1.611773,-0.72208 -1.611556,-1.61234 v -4.7597 h -1.612344 -1.611556 v 1.50097 c -2.17e-4,0.89026 -0.72208,1.61178 -1.612341,1.61156 -0.890021,-1.1e-4 -1.611537,-0.72154 -1.611754,-1.61156 v -1.50097 h -1.612344 -1.611557 v 1.50097 c -2.17e-4,0.89026 -0.722079,1.61178 -1.61234,1.61156 h -1.611556 v 9.0562 h 3.223504 v -4.7597 c -2.17e-4,-0.89057 0.721775,-1.61257 1.612345,-1.61235 0.890329,1.2e-4 1.611967,0.72202 1.61175,1.61235 v 8.01036 h 1.612344 1.611556 v -8.01036 c -2.17e-4,-0.89056 0.721791,-1.61255 1.612345,-1.61235 0.890257,2.2e-4 1.611773,0.72209 1.611556,1.61235 v 4.7597 h 1.61234 1.611557 v -1.50098 c 2.17e-4,-0.89026 0.722083,-1.61178 1.612344,-1.61155 0.890021,1.1e-4 1.611537,0.72153 1.611754,1.61155 v 1.50098 h 1.612341 1.611556 v -1.50098 c 2.17e-4,-0.89026 0.722083,-1.61178 1.612344,-1.61155 h 1.611556 v -9.0562 h -3.223504 v 4.7597 c 2.17e-4,0.89057 -0.721775,1.61257 -1.612345,1.61234 -0.890329,-1.1e-4 -1.611971,-0.72201 -1.611754,-1.61234 v -8.01036 h -1.61234 z" />
      <path
         id="path149"
         style="opacity:1;fill:#ffffff;stroke-width:3.17192;stroke-linecap:round;stroke-linejoin:round;paint-order:stroke markers fill"
         d="m 31.678181,233.57059 v 18.97996 h 3.223508 v -4.7597 c -2.17e-4,-0.89057 0.721771,-1.61257 1.612341,-1.61235 0.890329,1.2e-4 1.611971,0.72202 1.611754,1.61235 v 8.01036 h 1.612344 1.611555 v -8.01036 c -2.17e-4,-0.89056 0.721786,-1.61255 1.61234,-1.61235 0.890257,2.2e-4 1.611773,0.72209 1.611556,1.61235 v 4.7597 h 1.612345 1.611556 v -1.50098 c 2.17e-4,-0.89026 0.722084,-1.61178 1.612344,-1.61155 0.890021,1.1e-4 1.611534,0.72153 1.611751,1.61155 v 1.50098 h 1.612344 1.611556 v -1.50098 c 2.17e-4,-0.89026 0.722084,-1.61178 1.612345,-1.61155 h 1.611556 v -15.86743 h -3.22823 v 2.0478 c -2.17e-4,0.89026 -0.722084,1.61178 -1.612345,1.61155 -0.889948,-2.2e-4 -1.611335,-0.72161 -1.611552,-1.61155 v -2.0478 h -3.242593 v 2.0478 c -2.17e-4,0.88994 -0.721607,1.61133 -1.611556,1.61155 h -1.612344 v 1.4077 c 2.17e-4,0.89033 -0.721425,1.61223 -1.611754,1.61235 -0.89057,2.2e-4 -1.612558,-0.72178 -1.612341,-1.61235 v -5.06705 h -3.19635 v 1.88113 c 2.17e-4,0.89057 -0.721775,1.61257 -1.612344,1.61234 -0.890257,-2.1e-4 -1.611773,-0.72208 -1.611556,-1.61234 v -1.88113 z" />
      <path
         id="path153"
         style="opacity:1;fill:#ffffff;stroke-width:3.17192;stroke-linecap:round;stroke-linejoin:round;paint-order:stroke markers fill"
         d="m 31.678181,259.36198 3.81e-4,6.57885 h 1.611556 c 0.890569,-2.3e-4 1.612557,0.72177 1.61234,1.61234 v 1.52537 h 1.611754 1.612345 v -1.52537 c -2.17e-4,-0.89026 0.721299,-1.61213 1.611556,-1.61234 0.890568,-2.3e-4 1.612556,0.72177 1.612339,1.61234 v 4.7843 h 1.611556 1.612344 v -1.64738 c 2.17e-4,-0.88995 0.721608,-1.61134 1.611557,-1.61155 h 1.611754 v -1.52537 c -2.17e-4,-0.89057 0.721771,-1.61257 1.61234,-1.61234 0.890257,2.1e-4 1.611773,0.72208 1.611556,1.61234 v 1.52537 h 1.612345 c 0.889948,2.1e-4 1.611339,0.7216 1.611556,1.61155 v 1.64738 h 3.2239 v -12.97549 h -3.228229 v 2.0476 c -2.18e-4,0.89026 -0.722084,1.61178 -1.612345,1.61155 -0.889948,-2.1e-4 -1.611335,-0.7216 -1.611552,-1.61155 v -2.0476 h -3.242593 v 2.0476 c -2.17e-4,0.88995 -0.721608,1.61134 -1.611556,1.61155 h -1.612344 v 1.4077 c 2.17e-4,0.89033 -0.721425,1.61223 -1.611755,1.61235 -0.890569,2.2e-4 -1.612557,-0.72178 -1.61234,-1.61235 v -5.06685 h -3.19635 v 1.88093 c 2.17e-4,0.89057 -0.721775,1.61257 -1.612344,1.61235 -0.890257,-2.2e-4 -1.611774,-0.72209 -1.611557,-1.61235 v -1.88093 z" />
      <path
         id="path155"
         style="opacity:1;fill:#ffffff;stroke-width:3.17192;stroke-linecap:round;stroke-linejoin:round;paint-order:stroke markers fill"
         d="m 15.558484,255.80126 v -8.01036 c -2.17e-4,-0.89055 0.72179,-1.61254 1.612344,-1.61234 0.890257,2.2e-4 1.611774,0.72209 1.611557,1.61234 v 4.7597 h 1.612344 1.611556 v -1.50097 c 2.17e-4,-0.89026 0.72208,-1.61178 1.612341,-1.61155 0.89002,1.1e-4 1.611537,0.72153 1.611754,1.61155 v 1.50097 h 1.612344 1.611556 v -1.50097 c 2.17e-4,-0.89026 0.72208,-1.61178 1.612341,-1.61155 h 1.611556 V 233.57064 H 5.8869846 v 18.97996 h 3.2235043 v -4.7597 c -2.171e-4,-0.89057 0.7217752,-1.61256 1.6123441,-1.61234 0.89033,1.2e-4 1.611971,0.72201 1.611754,1.61234 v 8.01036 h 1.612341 z"
         sodipodi:nodetypes="ccsccccccccccccccccccccccc" />
      <path
         id="path156"
         style="opacity:1;fill:#ffffff;stroke-width:3.17192;stroke-linecap:round;stroke-linejoin:round;paint-order:stroke markers fill"
         d="M 31.678181,233.57064 V 207.77945 H 5.8869846 v 25.79119 h 3.2282297 v -2.04779 c 2.132e-4,-0.89026 0.7220798,-1.61178 1.6123447,-1.61156 0.889948,2.2e-4 1.611335,0.72161 1.611552,1.61156 v 2.04779 h 3.242593 v -2.04779 c 2.13e-4,-0.88995 0.721607,-1.61134 1.611552,-1.61156 h 1.612348 v -1.4077 c -2.17e-4,-0.89033 0.721425,-1.61223 1.611754,-1.61234 0.890566,-2.3e-4 1.612558,0.72177 1.612337,1.61234 v 5.06705 h 3.196355 v -1.88113 c -2.17e-4,-0.89057 0.721776,-1.61257 1.612341,-1.61234 0.890261,2.2e-4 1.611777,0.72209 1.61156,1.61234 v 1.88113 z" />
      <path
         id="path157"
         style="opacity:1;fill:#ffffff;stroke-width:3.17192;stroke-linecap:round;stroke-linejoin:round;paint-order:stroke markers fill"
         d="m 7.4989327,265.94078 c 0.8905692,-2.2e-4 1.6125614,0.72178 1.6123444,1.61235 v 1.52537 h 1.6117499 1.612345 v -1.52537 c -2.17e-4,-0.89026 0.721299,-1.61213 1.611556,-1.61235 0.890569,-2.2e-4 1.612561,0.72178 1.612344,1.61235 v 4.78429 h 1.611556 1.612341 v -1.64737 c 2.17e-4,-0.88995 0.721608,-1.61134 1.611556,-1.61155 h 1.611754 v -1.52537 c -2.17e-4,-0.89057 0.721775,-1.61257 1.612345,-1.61235 0.890257,2.2e-4 1.611773,0.72209 1.611556,1.61235 v 1.52537 h 1.61234 c 0.889949,2.1e-4 1.611339,0.7216 1.611556,1.61155 v 1.64737 h 3.223901 V 259.36193 H 5.8869846 l 3.313e-4,6.57886 z"
         sodipodi:nodetypes="ccccccsccccccccscccccccccc" />
      <path
         id="path158"
         style="opacity:1;fill:#ffffff;stroke-width:3.17192;stroke-linecap:round;stroke-linejoin:round;paint-order:stroke markers fill"
         d="m 9.1108849,294.87661 v -4.83431 c -2.171e-4,-0.89057 0.7217752,-1.61257 1.6123441,-1.61234 0.890257,2.2e-4 1.611773,0.72209 1.611556,1.61234 v 1.68968 h 1.612341 c 0.890257,2.2e-4 1.611773,0.72209 1.611556,1.61234 v 1.52537 h 3.223901 v -4.82739 c -2.17e-4,-0.89057 0.721775,-1.61257 1.612344,-1.61234 0.890329,1.1e-4 1.611967,0.72201 1.61175,1.61234 v 1.68968 h 1.612345 1.611556 v -1.68968 c -2.17e-4,-0.89057 0.721775,-1.61257 1.612344,-1.61234 0.890257,2.2e-4 1.611773,0.72209 1.611556,1.61234 v 1.68968 h 3.223703 v -6.57885 H 5.8869846 v 9.72348 z"
         sodipodi:nodetypes="ccscccccccccccccsccccccc" />
    </g>
  </g>
</svg>
