<?xml version="1.0" encoding="UTF-8" standalone="no"?>
<!-- Created with Inkscape (http://www.inkscape.org/) -->

<svg
   width="500"
   height="425"
   viewBox="0 0 132.29167 112.44792"
   version="1.1"
   id="svg1"
   inkscape:version="1.4 (e7c3feb100, 2024-10-09)"
   sodipodi:docname="hit_masks01.svg"
   xmlns:inkscape="http://www.inkscape.org/namespaces/inkscape"
   xmlns:sodipodi="http://sodipodi.sourceforge.net/DTD/sodipodi-0.dtd"
   xmlns="http://www.w3.org/2000/svg"
   xmlns:svg="http://www.w3.org/2000/svg">
  <sodipodi:namedview
     id="namedview1"
     pagecolor="#565656"
     bordercolor="#000000"
     borderopacity="0.25"
     inkscape:showpageshadow="2"
     inkscape:pageopacity="0.0"
     inkscape:pagecheckerboard="0"
     inkscape:deskcolor="#d1d1d1"
     inkscape:document-units="mm"
     inkscape:zoom="0.73228113"
     inkscape:cx="364.61407"
     inkscape:cy="252.63522"
     inkscape:window-width="1920"
     inkscape:window-height="1003"
     inkscape:window-x="1920"
     inkscape:window-y="0"
     inkscape:window-maximized="1"
     inkscape:current-layer="layer1"
     showgrid="false" />
  <defs
     id="defs1" />
  <g
     inkscape:label="Layer 1"
     inkscape:groupmode="layer"
     id="layer1"
     transform="translate(-5.8869846,-181.98816)">
    <path
       id="path53"
       style="fill:#ffffff;stroke-width:3.00001;stroke-linecap:round;stroke-linejoin:round;paint-order:stroke markers fill"
       d="m 75.340312,185.09294 v 6.98491 c 2.23e-4,0.77655 -0.740461,1.40612 -1.654051,1.40594 -0.913286,-1.9e-4 -1.653465,-0.62965 -1.653242,-1.40594 v -4.15039 h -1.654051 -1.653242 v 1.30883 c -2.22e-4,0.77629 -0.740758,1.40545 -1.654047,1.40525 -0.913043,-1e-4 -1.653222,-0.62917 -1.653445,-1.40525 v -1.30883 h -1.65405 -1.653243 v 1.30883 c -2.23e-4,0.77629 -0.740757,1.40545 -1.654046,1.40525 h -1.653242 v 13.83618 h 26.45833 v -16.55026 h -3.306886 v 4.15039 c 2.22e-4,0.77657 -0.740445,1.40613 -1.654052,1.40594 -0.913359,-1e-4 -1.653667,-0.62958 -1.653445,-1.40594 v -6.98491 h -1.654046 z"
       sodipodi:nodetypes="ccsccccccccccccccccccccccc" />
    <path
       d="m 5.8869885,181.98825 v 22.48954 H 32.345319 v -22.48954 z"
       style="fill:#ffffff;stroke-width:3.00001;stroke-linecap:round;stroke-linejoin:round;paint-order:stroke markers fill"
       id="path51" />
    <path
       id="path52"
       style="fill:#ffffff;stroke-width:3.00001;stroke-linecap:round;stroke-linejoin:round;paint-order:stroke markers fill"
       d="m 32.345319,181.98816 v 22.48956 h 26.458334 v -22.48956 h -3.311735 v 1.78565 c -2.22e-4,0.7763 -0.740762,1.40545 -1.654051,1.40525 -0.912968,-1.8e-4 -1.653015,-0.62922 -1.653238,-1.40525 v -1.78565 H 48.85816 v 1.78565 c -2.22e-4,0.77603 -0.740273,1.40507 -1.653242,1.40525 h -1.65405 v 1.2275 c 2.23e-4,0.77635 -0.740086,1.40584 -1.653445,1.40594 -0.913606,1.9e-4 -1.65427,-0.62938 -1.654047,-1.40594 v -4.4184 h -3.27903 v 1.64032 c 2.23e-4,0.77656 -0.740445,1.40614 -1.65405,1.40594 -0.913286,-1.9e-4 -1.653465,-0.62965 -1.653242,-1.40594 v -1.64032 z" />
    <path
       id="path54"
       style="fill:#ffffff;stroke-width:3.00001;stroke-linecap:round;stroke-linejoin:round;paint-order:stroke markers fill"
       d="m 110.06667,198.74105 c -0.91361,2e-4 -1.65428,-0.62938 -1.65405,-1.40594 v -1.3301 h -1.65344 -1.65406 v 1.3301 c 2.3e-4,0.77629 -0.73995,1.40575 -1.65323,1.40594 -0.91361,2e-4 -1.65428,-0.62938 -1.65406,-1.40594 v -4.17183 h -1.65324 -1.654045 v 1.43648 c -2.23e-4,0.77602 -0.740273,1.40506 -1.653242,1.40525 h -1.653445 v 1.3301 c 2.22e-4,0.77656 -0.740445,1.40614 -1.654051,1.40594 -0.913285,-1.9e-4 -1.653465,-0.62965 -1.653243,-1.40594 v -1.3301 h -1.654046 c -0.912969,-1.9e-4 -1.653019,-0.62923 -1.653242,-1.40525 v -1.43648 h -3.307293 v 11.31444 h 26.458327 l -3.4e-4,-5.73668 z"
       sodipodi:nodetypes="ccccccsccccccccscccccccccc" />
    <path
       id="path55"
       style="fill:#ffffff;stroke-width:3.00001;stroke-linecap:round;stroke-linejoin:round;paint-order:stroke markers fill"
       d="m 134.87136,195.99896 v 4.21545 c 2.1e-4,0.77657 -0.74045,1.40614 -1.65406,1.40595 -0.91328,-1.9e-4 -1.65346,-0.62965 -1.65323,-1.40595 v -1.47337 h -1.65405 c -0.91329,-1.9e-4 -1.65347,-0.62965 -1.65325,-1.40594 v -1.3301 h -3.30729 v 4.20941 c 2.3e-4,0.77657 -0.74045,1.40614 -1.65405,1.40595 -0.91335,-1.1e-4 -1.65366,-0.62959 -1.65345,-1.40595 v -1.47337 h -1.65404 -1.65325 v 1.47337 c 2.3e-4,0.77657 -0.74044,1.40614 -1.65404,1.40595 -0.91329,-1.9e-4 -1.65347,-0.62965 -1.65325,-1.40595 v -1.47337 h -3.30709 v 5.73666 h 26.45834 v -8.47874 z"
       sodipodi:nodetypes="ccscccccccccccccsccccccc" />
    <path
       id="path142"
       style="fill:#ffffff;stroke-width:3.00001;stroke-linecap:round;stroke-linejoin:round;paint-order:stroke markers fill"
       d="m 75.340312,207.58252 v 6.98492 c 2.23e-4,0.77654 -0.740461,1.40611 -1.654051,1.40593 -0.913286,-1.9e-4 -1.653465,-0.62965 -1.653242,-1.40593 v -4.15039 h -1.654051 -1.653242 v 1.30882 c -2.22e-4,0.77629 -0.740758,1.40545 -1.654047,1.40525 -0.913043,-1e-4 -1.653222,-0.62917 -1.653445,-1.40525 v -1.30882 h -1.65405 -1.653243 v 1.30882 c -2.23e-4,0.77629 -0.740757,1.40545 -1.654046,1.40525 h -1.653242 v 13.83618 h 3.31173 v -1.78565 c 2.18e-4,-0.7763 0.740758,-1.40545 1.65405,-1.40526 0.912969,1.9e-4 1.653019,0.62923 1.653242,1.40526 v 1.78565 h 3.326469 v -1.78565 c 2.18e-4,-0.77603 0.740278,-1.40507 1.653242,-1.40526 h 1.654051 v -1.2275 c -2.22e-4,-0.77635 0.740082,-1.40584 1.653441,-1.40593 0.913601,-2e-4 1.654277,0.62937 1.654051,1.40593 v 4.41841 h 3.279031 v -1.64032 c -2.22e-4,-0.77656 0.740449,-1.40614 1.654051,-1.40595 0.913289,2e-4 1.653464,0.62966 1.653242,1.40595 v 1.64032 h 3.31173 v -16.55025 h -3.306886 v 4.15039 c 2.22e-4,0.77656 -0.740445,1.40613 -1.654052,1.40593 -0.913359,-9e-5 -1.653667,-0.62958 -1.653445,-1.40593 v -6.98492 h -1.654046 z" />
    <path
       id="path145"
       style="fill:#ffffff;stroke-width:3.00001;stroke-linecap:round;stroke-linejoin:round;paint-order:stroke markers fill"
       d="m 85.261983,215.65286 v 11.31444 h 3.311734 v -1.78565 c 2.19e-4,-0.7763 0.740754,-1.40545 1.654047,-1.40526 0.912969,1.9e-4 1.65302,0.62923 1.653242,1.40526 v 1.78565 h 3.326469 v -1.78565 c 2.19e-4,-0.77603 0.740277,-1.40507 1.653242,-1.40526 h 1.65405 v -1.2275 c -2.22e-4,-0.77635 0.740086,-1.40584 1.653443,-1.40593 0.9136,-2e-4 1.65428,0.62937 1.65405,1.40593 v 4.41841 h 3.27903 v -1.64032 c -2.2e-4,-0.77656 0.74045,-1.40614 1.65405,-1.40595 0.91329,2e-4 1.65346,0.62966 1.65324,1.40595 v 1.64032 h 3.31173 l -3.9e-4,-5.73666 h -1.65324 c -0.91361,1.9e-4 -1.65427,-0.62938 -1.65405,-1.40594 v -1.3301 h -1.65344 -1.65406 v 1.3301 c 2.3e-4,0.77628 -0.73994,1.40574 -1.65323,1.40594 -0.91361,1.9e-4 -1.65428,-0.62938 -1.65405,-1.40594 v -4.17184 h -1.65325 -1.654043 v 1.43648 c -2.23e-4,0.77602 -0.740274,1.40507 -1.653242,1.40526 h -1.653446 v 1.3301 c 2.22e-4,0.77656 -0.740445,1.40613 -1.65405,1.40594 -0.913286,-2e-4 -1.653465,-0.62966 -1.653242,-1.40594 v -1.3301 h -1.654048 c -0.912968,-1.9e-4 -1.653019,-0.62924 -1.653242,-1.40526 v -1.43648 z" />
    <path
       id="path144"
       style="fill:#ffffff;stroke-width:3.00001;stroke-linecap:round;stroke-linejoin:round;paint-order:stroke markers fill"
       d="m 32.345319,204.47774 v 22.48956 h 3.311735 v -1.78565 c 2.18e-4,-0.7763 0.740758,-1.40545 1.65405,-1.40526 0.912969,1.9e-4 1.653019,0.62923 1.653242,1.40526 v 1.78565 h 3.326467 v -1.78565 c 2.19e-4,-0.77603 0.740278,-1.40507 1.653243,-1.40526 h 1.654046 v -1.2275 c -2.23e-4,-0.77635 0.740086,-1.40584 1.653445,-1.40593 0.913602,-2e-4 1.654278,0.62937 1.654051,1.40593 v 4.41841 h 3.279031 v -1.64032 c -2.23e-4,-0.77656 0.740445,-1.40614 1.654047,-1.40595 0.913289,2e-4 1.653465,0.62966 1.653242,1.40595 v 1.64032 h 3.311735 v -22.48956 h -3.311735 v 1.78565 c -2.22e-4,0.7763 -0.740762,1.40545 -1.654051,1.40526 -0.912968,-1.9e-4 -1.653015,-0.62923 -1.653238,-1.40526 v -1.78565 H 48.85816 v 1.78565 c -2.22e-4,0.77603 -0.740273,1.40507 -1.653242,1.40526 h -1.65405 v 1.2275 c 2.23e-4,0.77635 -0.740086,1.40584 -1.653445,1.40593 -0.913606,1.9e-4 -1.65427,-0.62937 -1.654047,-1.40593 v -4.41841 h -3.27903 v 1.64033 c 2.23e-4,0.77656 -0.740445,1.40613 -1.65405,1.40594 -0.913286,-2e-4 -1.653465,-0.62966 -1.653242,-1.40594 v -1.64033 z" />
    <path
       id="path147"
       style="fill:#ffffff;stroke-width:3.00001;stroke-linecap:round;stroke-linejoin:round;paint-order:stroke markers fill"
       d="m 75.340312,230.07206 v 6.98492 c 2.23e-4,0.77655 -0.740461,1.40612 -1.654051,1.40594 -0.913286,-1.8e-4 -1.653465,-0.62964 -1.653242,-1.40594 v -4.15039 h -1.654051 -1.653242 v 1.30883 c -2.22e-4,0.77629 -0.740758,1.40545 -1.654047,1.40525 -0.913043,-9e-5 -1.653222,-0.62917 -1.653445,-1.40525 v -1.30883 h -1.65405 -1.653243 v 1.30883 c -2.23e-4,0.77629 -0.740757,1.40545 -1.654046,1.40525 h -1.653242 v 7.89688 h 3.306886 v -4.15039 c -2.23e-4,-0.77656 0.740445,-1.40614 1.654051,-1.40595 0.913359,1.1e-4 1.653664,0.6296 1.653441,1.40595 v 6.98492 h 1.65405 1.653242 v -6.98492 c -2.22e-4,-0.77656 0.740462,-1.40612 1.654052,-1.40595 0.913285,2e-4 1.653464,0.62966 1.653242,1.40595 v 4.15039 h 1.654046 1.653243 v -1.30883 c 2.22e-4,-0.7763 0.740761,-1.40545 1.65405,-1.40525 0.913043,9e-5 1.653223,0.62916 1.653445,1.40525 v 1.30883 h 1.654047 1.653242 v -1.30883 c 2.23e-4,-0.7763 0.740761,-1.40545 1.654051,-1.40525 h 1.653242 v -7.89688 h -3.306886 v 4.15039 c 2.22e-4,0.77657 -0.740445,1.40614 -1.654052,1.40594 -0.913359,-1e-4 -1.653667,-0.62958 -1.653445,-1.40594 v -6.98492 h -1.654046 z" />
    <path
       id="path149"
       style="fill:#ffffff;stroke-width:3.00001;stroke-linecap:round;stroke-linejoin:round;paint-order:stroke markers fill"
       d="m 32.345319,226.9673 v 16.55025 h 3.30689 v -4.15039 c -2.22e-4,-0.77656 0.740441,-1.40614 1.654048,-1.40595 0.913359,1.1e-4 1.653667,0.6296 1.653445,1.40595 v 6.98492 h 1.65405 1.653241 v -6.98492 c -2.23e-4,-0.77656 0.740456,-1.40612 1.654046,-1.40595 0.913286,2e-4 1.653465,0.62966 1.653242,1.40595 v 4.15039 h 1.654052 1.653242 v -1.30883 c 2.22e-4,-0.7763 0.740762,-1.40545 1.65405,-1.40525 0.913043,9e-5 1.653219,0.62916 1.653442,1.40525 v 1.30883 h 1.65405 1.653242 v -1.30883 c 2.23e-4,-0.7763 0.740762,-1.40545 1.654052,-1.40525 h 1.653242 V 226.9673 h -3.311735 v 1.78565 c -2.22e-4,0.77629 -0.740762,1.40545 -1.654051,1.40525 -0.912968,-1.9e-4 -1.653015,-0.62924 -1.653238,-1.40525 V 226.9673 H 48.85816 v 1.78565 c -2.22e-4,0.77601 -0.740273,1.40506 -1.653242,1.40525 h -1.65405 v 1.22749 c 2.23e-4,0.77636 -0.740086,1.40584 -1.653445,1.40595 -0.913606,1.9e-4 -1.65427,-0.62938 -1.654047,-1.40595 v -4.41839 h -3.27903 v 1.64032 c 2.23e-4,0.77656 -0.740445,1.40613 -1.65405,1.40593 -0.913286,-1.8e-4 -1.653465,-0.62964 -1.653242,-1.40593 v -1.64032 z" />
    <path
       id="path153"
       style="fill:#ffffff;stroke-width:3.00001;stroke-linecap:round;stroke-linejoin:round;paint-order:stroke markers fill"
       d="m 32.345319,249.45702 3.91e-4,5.73666 h 1.653242 c 0.913605,-2e-4 1.654269,0.62937 1.654046,1.40594 v 1.3301 h 1.653445 1.654052 v -1.3301 c -2.23e-4,-0.7763 0.739957,-1.40576 1.653242,-1.40594 0.913604,-2e-4 1.654268,0.62937 1.654045,1.40594 v 4.17184 h 1.653242 1.65405 v -1.43649 c 2.23e-4,-0.77603 0.740274,-1.40507 1.653243,-1.40525 h 1.653445 v -1.3301 c -2.22e-4,-0.77657 0.740441,-1.40614 1.654047,-1.40594 0.913285,1.8e-4 1.653464,0.62964 1.653242,1.40594 v 1.3301 h 1.654051 c 0.912968,1.8e-4 1.653019,0.62922 1.653242,1.40525 v 1.43649 h 3.307292 v -11.31444 h -3.311733 v 1.78548 c -2.24e-4,0.77629 -0.740762,1.40545 -1.654051,1.40525 -0.912969,-1.9e-4 -1.653016,-0.62923 -1.653238,-1.40525 v -1.78548 h -3.326469 v 1.78548 c -2.23e-4,0.77602 -0.740274,1.40506 -1.653242,1.40525 h -1.65405 v 1.22749 c 2.22e-4,0.77635 -0.740087,1.40584 -1.653447,1.40595 -0.913605,1.9e-4 -1.654268,-0.62939 -1.654046,-1.40595 v -4.41822 h -3.279029 v 1.64014 c 2.22e-4,0.77657 -0.740446,1.40614 -1.654051,1.40595 -0.913285,-1.9e-4 -1.653465,-0.62965 -1.653243,-1.40595 v -1.64014 z" />
    <path
       id="path155"
       style="fill:#ffffff;stroke-width:3.00001;stroke-linecap:round;stroke-linejoin:round;paint-order:stroke markers fill"
       d="m 15.808656,246.35212 v -6.98492 c -2.23e-4,-0.77654 0.74046,-1.40611 1.65405,-1.40593 0.913285,1.9e-4 1.653466,0.62965 1.653243,1.40593 v 4.15039 h 1.65405 1.653242 v -1.30882 c 2.23e-4,-0.77629 0.740758,-1.40545 1.654048,-1.40525 0.913042,1e-4 1.653222,0.62916 1.653445,1.40525 v 1.30882 h 1.65405 1.653242 v -1.30882 c 2.23e-4,-0.77629 0.740758,-1.40545 1.654047,-1.40525 h 1.653242 V 226.96734 H 5.8869846 v 16.55025 H 9.193871 v -4.15039 c -2.228e-4,-0.77656 0.7404453,-1.40613 1.65405,-1.40593 0.91336,10e-5 1.653668,0.62958 1.653445,1.40593 v 6.98492 h 1.654048 z"
       sodipodi:nodetypes="ccsccccccccccccccccccccccc" />
    <path
       id="path156"
       style="fill:#ffffff;stroke-width:3.00001;stroke-linecap:round;stroke-linejoin:round;paint-order:stroke markers fill"
       d="M 32.345319,226.96734 V 204.47779 H 5.8869846 v 22.48955 h 3.311734 v -1.78564 c 2.187e-4,-0.7763 0.7407578,-1.40545 1.6540514,-1.40526 0.912968,1.9e-4 1.653015,0.62923 1.653238,1.40526 v 1.78564 h 3.326468 v -1.78564 c 2.19e-4,-0.77603 0.740273,-1.40507 1.653238,-1.40526 h 1.654055 v -1.22749 c -2.23e-4,-0.77636 0.740086,-1.40584 1.653445,-1.40594 0.913602,-2e-4 1.65427,0.62937 1.654043,1.40594 v 4.41839 h 3.279035 v -1.64032 c -2.23e-4,-0.77656 0.740446,-1.40613 1.654047,-1.40593 0.913289,1.9e-4 1.653469,0.62965 1.653246,1.40593 v 1.64032 z" />
    <path
       id="path157"
       style="fill:#ffffff;stroke-width:3.00001;stroke-linecap:round;stroke-linejoin:round;paint-order:stroke markers fill"
       d="m 7.5406288,255.19364 c 0.9136055,-1.9e-4 1.6542734,0.62938 1.6540508,1.40594 v 1.3301 h 1.6534404 1.654052 v -1.3301 c -2.23e-4,-0.77629 0.739957,-1.40575 1.653242,-1.40594 0.913605,-1.9e-4 1.654273,0.62938 1.65405,1.40594 v 4.17184 h 1.653242 1.654047 v -1.43649 c 2.23e-4,-0.77602 0.740274,-1.40506 1.653242,-1.40525 h 1.653445 v -1.3301 c -2.22e-4,-0.77656 0.740445,-1.40613 1.654052,-1.40594 0.913285,1.9e-4 1.653464,0.62965 1.653242,1.40594 v 1.3301 h 1.654046 c 0.912969,1.9e-4 1.653019,0.62923 1.653242,1.40525 v 1.43649 h 3.307293 V 249.45698 H 5.8869846 l 3.399e-4,5.73667 z"
       sodipodi:nodetypes="ccccccsccccccccscccccccccc" />
    <path
       id="path158"
       style="fill:#ffffff;stroke-width:3.00001;stroke-linecap:round;stroke-linejoin:round;paint-order:stroke markers fill"
       d="m 9.1942772,280.42527 v -4.21545 c -2.227e-4,-0.77657 0.7404453,-1.40614 1.6540508,-1.40594 0.913285,1.9e-4 1.653464,0.62965 1.653242,1.40594 v 1.47337 h 1.654047 c 0.913285,2e-4 1.653464,0.62966 1.653242,1.40594 v 1.3301 h 3.307293 v -4.20941 c -2.22e-4,-0.77657 0.740445,-1.40614 1.65405,-1.40594 0.91336,1e-4 1.653664,0.62958 1.653441,1.40594 v 1.47337 h 1.654052 1.653242 v -1.47337 c -2.23e-4,-0.77657 0.740445,-1.40614 1.65405,-1.40594 0.913285,1.9e-4 1.653465,0.62965 1.653242,1.40594 v 1.47337 h 3.30709 v -5.73666 H 5.8869846 v 8.47874 z"
       sodipodi:nodetypes="ccscccccccccccccsccccccc" />
  </g>
</svg>
