<?xml version="1.0" encoding="UTF-8" standalone="no"?>
<!-- Created with Inkscape (http://www.inkscape.org/) -->

<svg
   width="180.02255"
   height="111.97745"
   viewBox="0 0 47.630968 29.627366"
   version="1.1"
   id="svg1"
   inkscape:version="1.4 (e7c3feb100, 2024-10-09)"
   sodipodi:docname="player.svg"
   xml:space="preserve"
   xmlns:inkscape="http://www.inkscape.org/namespaces/inkscape"
   xmlns:sodipodi="http://sodipodi.sourceforge.net/DTD/sodipodi-0.dtd"
   xmlns="http://www.w3.org/2000/svg"
   xmlns:svg="http://www.w3.org/2000/svg"><sodipodi:namedview
     id="namedview1"
     pagecolor="#ffffff"
     bordercolor="#000000"
     borderopacity="0.25"
     inkscape:showpageshadow="2"
     inkscape:pageopacity="0.0"
     inkscape:pagecheckerboard="0"
     inkscape:deskcolor="#d1d1d1"
     inkscape:document-units="mm"
     inkscape:zoom="1.4645623"
     inkscape:cx="88.422325"
     inkscape:cy="118.80683"
     inkscape:window-width="1920"
     inkscape:window-height="1003"
     inkscape:window-x="1920"
     inkscape:window-y="0"
     inkscape:window-maximized="1"
     inkscape:current-layer="layer1"
     showgrid="false"
     showguides="true" /><defs
     id="defs1"><inkscape:path-effect
       effect="fillet_chamfer"
       id="path-effect4"
       is_visible="true"
       lpeversion="1"
       nodesatellites_param="F,0,1,1,0,1.1345057,0,1 @ F,0,0,1,0,0,0,1 @ F,0,0,1,0,3.2436654,0,1 @ F,0,0,1,0,0,0,1 @ F,0,0,1,0,3.2436654,0,1 @ F,0,0,1,0,2.3299968,0,1 @ F,0,0,1,0,2.3299968,0,1 @ F,0,0,1,0,3.2436654,0,1 @ F,0,0,1,0,0,0,1 @ F,0,0,1,0,3.2436654,0,1 @ F,0,0,1,0,0,0,1 @ F,0,0,1,0,1.1345057,0,1"
       radius="0"
       unit="px"
       method="auto"
       mode="F"
       chamfer_steps="1"
       flexible="false"
       use_knot_distance="true"
       apply_no_radius="true"
       apply_with_radius="true"
       only_selected="false"
       hide_knots="false" /></defs><g
     inkscape:label="Layer 1"
     inkscape:groupmode="layer"
     id="layer1"
     transform="translate(-80.608582,-117.2403)"><path
       id="rect2"
       style="font-variation-settings:normal;vector-effect:none;fill:#ffffff;fill-opacity:1;stroke:#000000;stroke-width:3.5915;stroke-linecap:butt;stroke-linejoin:round;stroke-miterlimit:4;stroke-dasharray:none;stroke-dashoffset:0;stroke-opacity:1;-inkscape-stroke:none;paint-order:stroke markers fill;stop-color:#000000"
       d="m 673.74456,733.51589 v 2.33689 h -1.72161 a 3.2436654,3.2436654 135 0 0 -3.24367,3.24367 v 6.18934 h -15.95361 a 3.2436654,3.2436654 135 0 0 -3.24367,3.24367 l 0,13.58899 a 2.3299968,2.3299968 45 0 0 2.33,2.33 h 48.4675 a 2.3299968,2.3299968 135 0 0 2.33,-2.33 v -13.58899 a 3.2436654,3.2436654 45 0 0 -3.24367,-3.24367 l -15.9536,0 v -6.18934 a 3.2436654,3.2436654 45 0 0 -3.24367,-3.24367 h -1.72213 v -2.33689 a 1.1345057,1.1345057 45 0 0 -1.13451,-1.13451 h -2.53285 a 1.1345057,1.1345057 135 0 0 -1.13451,1.13451 z"
       sodipodi:nodetypes="ccccccccccccc"
       transform="matrix(0.8397709,0,0,0.83086242,-463.38346,-489.77584)"
       inkscape:original-d="m 673.74456,732.38138 v 3.4714 h -4.96528 v 9.43301 H 649.582 v 19.16266 h 53.1275 v -19.16266 h -19.19727 v -9.43301 h -4.9658 v -3.4714 z"
       inkscape:path-effect="#path-effect4" /></g></svg>
