<?xml version="1.0" encoding="UTF-8" standalone="no"?>
<!-- Created with Inkscape (http://www.inkscape.org/) -->

<svg
   width="512"
   height="384"
   viewBox="0 0 135.46666 101.6"
   version="1.1"
   id="svg1"
   inkscape:version="1.4 (e7c3feb100, 2024-10-09)"
   sodipodi:docname="projectile.svg"
   xml:space="preserve"
   xmlns:inkscape="http://www.inkscape.org/namespaces/inkscape"
   xmlns:sodipodi="http://sodipodi.sourceforge.net/DTD/sodipodi-0.dtd"
   xmlns="http://www.w3.org/2000/svg"
   xmlns:svg="http://www.w3.org/2000/svg"><sodipodi:namedview
     id="namedview1"
     pagecolor="#ffffff"
     bordercolor="#000000"
     borderopacity="0.25"
     inkscape:showpageshadow="2"
     inkscape:pageopacity="0.0"
     inkscape:pagecheckerboard="0"
     inkscape:deskcolor="#d1d1d1"
     inkscape:document-units="mm"
     inkscape:zoom="1.4645623"
     inkscape:cx="196.98718"
     inkscape:cy="227.37169"
     inkscape:window-width="1920"
     inkscape:window-height="1003"
     inkscape:window-x="1920"
     inkscape:window-y="0"
     inkscape:window-maximized="1"
     inkscape:current-layer="layer1"
     showguides="true"><sodipodi:guide
       position="0,67.733332"
       orientation="0,1"
       id="guide1"
       inkscape:locked="false"
       inkscape:label=""
       inkscape:color="rgb(0,134,229)" /><sodipodi:guide
       position="-17.614051,34.034306"
       orientation="0,1"
       id="guide2"
       inkscape:locked="false"
       inkscape:label=""
       inkscape:color="rgb(0,134,229)" /><sodipodi:guide
       position="33.963503,86.605472"
       orientation="-1,0"
       id="guide3"
       inkscape:locked="false"
       inkscape:label=""
       inkscape:color="rgb(0,134,229)" /><sodipodi:guide
       position="67.733332,101.6"
       orientation="-1,0"
       id="guide4"
       inkscape:locked="false"
       inkscape:label=""
       inkscape:color="rgb(0,134,229)" /><sodipodi:guide
       position="101.6,-14.880011"
       orientation="-1,0"
       id="guide5"
       inkscape:locked="false"
       inkscape:label=""
       inkscape:color="rgb(0,134,229)" /></sodipodi:namedview><defs
     id="defs1"><inkscape:path-effect
       effect="fillet_chamfer"
       id="path-effect25"
       is_visible="true"
       lpeversion="1"
       nodesatellites_param="F,0,0,1,0,0.9907344,0,1 @ F,0,0,1,0,0,0,1 @ F,0,0,1,0,0,0,1 @ F,0,0,1,0,0,0,1 @ F,0,0,1,0,0,0,1 @ F,0,0,1,0,0,0,1 @ F,0,0,1,0,1.1762062,0,1 @ F,0,0,1,0,0.74198314,0,1 @ F,0,0,1,0,0,0,1 @ F,0,0,1,0,0,0,1 @ F,0,0,1,0,0,0,1 @ F,0,0,1,0,0,0,1 @ F,0,0,1,0,0,0,1 @ F,0,0,1,0,0.9907344,0,1"
       radius="0"
       unit="px"
       method="auto"
       mode="F"
       chamfer_steps="1"
       flexible="false"
       use_knot_distance="true"
       apply_no_radius="true"
       apply_with_radius="true"
       only_selected="false"
       hide_knots="false" /><inkscape:path-effect
       effect="fillet_chamfer"
       id="path-effect24"
       is_visible="true"
       lpeversion="1"
       nodesatellites_param="F,0,0,1,0,0.63515484,0,1 @ F,0,0,1,0,0,0,1 @ F,0,0,1,0,0,0,1 @ F,0,0,1,0,0,0,1 @ F,0,0,1,0,0,0,1 @ F,0,0,1,0,0,0,1 @ F,0,0,1,0,1.5578729,0,1 @ F,0,0,1,0,0.81016898,0,1 @ F,0,0,1,0,0,0,1 @ F,0,0,1,0,0,0,1 @ F,0,0,1,0,0,0,1 @ F,0,0,1,0,0,0,1 @ F,0,0,1,0,0,0,1 @ F,0,0,1,0,0.63515484,0,1"
       radius="0"
       unit="px"
       method="auto"
       mode="F"
       chamfer_steps="1"
       flexible="false"
       use_knot_distance="true"
       apply_no_radius="true"
       apply_with_radius="true"
       only_selected="false"
       hide_knots="false" /><inkscape:path-effect
       effect="fillet_chamfer"
       id="path-effect23"
       is_visible="true"
       lpeversion="1"
       nodesatellites_param="F,0,0,1,0,1.2869395,0,1 @ F,0,0,1,0,0,0,1 @ F,0,0,1,0,0,0,1 @ F,0,0,1,0,0,0,1 @ F,0,0,1,0,0,0,1 @ F,0,0,1,0,0,0,1 @ F,0,0,1,0,0.84495947,0,1 @ F,0,0,1,0,1.1998555,0,1 @ F,0,0,1,0,0,0,1 @ F,0,0,1,0,0,0,1 @ F,0,0,1,0,0,0,1 @ F,0,0,1,0,0,0,1 @ F,0,0,1,0,0,0,1 @ F,0,0,1,0,1.2869395,0,1"
       radius="0"
       unit="px"
       method="auto"
       mode="F"
       chamfer_steps="1"
       flexible="false"
       use_knot_distance="true"
       apply_no_radius="true"
       apply_with_radius="true"
       only_selected="false"
       hide_knots="false" /><inkscape:path-effect
       effect="fillet_chamfer"
       id="path-effect22"
       is_visible="true"
       lpeversion="1"
       nodesatellites_param="F,0,0,1,0,0.72489196,0,1 @ F,0,0,1,0,0,0,1 @ F,0,0,1,0,0,0,1 @ F,0,0,1,0,0,0,1 @ F,0,0,1,0,0,0,1 @ F,0,0,1,0,0,0,1 @ F,0,0,1,0,1.3069162,0,1 @ F,0,0,1,0,2.1314491,0,1 @ F,0,0,1,0,0,0,1 @ F,0,0,1,0,0,0,1 @ F,0,0,1,0,0,0,1 @ F,0,0,1,0,0,0,1 @ F,0,0,1,0,0,0,1 @ F,0,0,1,0,0.97527622,0,1"
       radius="0"
       unit="px"
       method="auto"
       mode="F"
       chamfer_steps="1"
       flexible="false"
       use_knot_distance="true"
       apply_no_radius="true"
       apply_with_radius="true"
       only_selected="false"
       hide_knots="false" /><inkscape:path-effect
       effect="fillet_chamfer"
       id="path-effect4"
       is_visible="true"
       lpeversion="1"
       nodesatellites_param="F,0,1,1,0,1.1345057,0,1 @ F,0,0,1,0,0,0,1 @ F,0,0,1,0,3.2436654,0,1 @ F,0,0,1,0,0,0,1 @ F,0,0,1,0,3.2436654,0,1 @ F,0,0,1,0,2.3299968,0,1 @ F,0,0,1,0,2.3299968,0,1 @ F,0,0,1,0,3.2436654,0,1 @ F,0,0,1,0,0,0,1 @ F,0,0,1,0,3.2436654,0,1 @ F,0,0,1,0,0,0,1 @ F,0,0,1,0,1.1345057,0,1"
       radius="0"
       unit="px"
       method="auto"
       mode="F"
       chamfer_steps="1"
       flexible="false"
       use_knot_distance="true"
       apply_no_radius="true"
       apply_with_radius="true"
       only_selected="false"
       hide_knots="false" /></defs><g
     inkscape:label="Layer 1"
     inkscape:groupmode="layer"
     id="layer1"
     transform="translate(-133.89708,-104.24582)"><rect
       style="font-variation-settings:normal;vector-effect:none;fill:#ffffff;fill-opacity:1;stroke:#000000;stroke-width:3;stroke-linecap:butt;stroke-linejoin:round;stroke-miterlimit:4;stroke-dasharray:none;stroke-dashoffset:0;stroke-opacity:1;-inkscape-stroke:none;paint-order:stroke markers fill;stop-color:#000000"
       id="rect4"
       width="5.4666667"
       height="30.3375"
       x="148.09708"
       y="106.0104" /><path
       id="rect1"
       style="font-variation-settings:normal;vector-effect:none;fill:#ffffff;fill-opacity:1;stroke:#000000;stroke-width:3;stroke-linecap:butt;stroke-linejoin:round;stroke-miterlimit:4;stroke-dasharray:none;stroke-dashoffset:0;stroke-opacity:1;-inkscape-stroke:none;paint-order:stroke markers fill;stop-color:#000000"
       d="M 181.96391 106.01057 L 181.96391 110.60564 L 177.55953 110.60564 L 177.55953 114.2173 L 181.96391 114.2173 L 181.96391 127.1359 L 177.55953 127.1359 L 177.55953 130.74756 L 181.96391 130.74756 L 181.96391 136.34774 L 183.77931 136.34774 L 187.43025 136.34774 L 191.83463 136.34774 L 191.83463 132.73607 L 187.43025 132.73607 L 187.43025 119.818 L 191.83463 119.818 L 191.83463 116.20633 L 187.43025 116.20633 L 187.43025 106.01057 L 181.96391 106.01057 z " /><path
       style="font-variation-settings:normal;opacity:1;vector-effect:none;fill:#ffffff;fill-opacity:1;stroke:#000000;stroke-width:3;stroke-linecap:butt;stroke-linejoin:round;stroke-miterlimit:4;stroke-dasharray:none;stroke-dashoffset:0;stroke-opacity:1;-inkscape-stroke:none;paint-order:stroke markers fill;stop-color:#000000;stop-opacity:1"
       d="m 248.61442,174.36581 -3.18461,2.56808 c -1.2662,1.02079 -1.2662,2.95003 0,3.97082 l 8.33386,6.72103 -8.33386,6.72052 c -1.26448,1.02076 -1.26448,2.94799 0,3.96875 l 6.23486,5.02773 a 3.332372,3.332372 19.44118 0 0 2.09181,0.73833 h 5.6922 c 0.40978,0 0.62378,-0.31935 0.36872,-0.63823 -0.11498,-0.14374 -0.24562,-0.27517 -0.39,-0.39168 l -8.33592,-6.72052 8.33592,-6.72104 c 1.26577,-1.02078 1.26577,-2.94952 0,-3.9703 l -8.33386,-6.72104 5.64545,-4.55245 a 0.34969434,0.34969434 70.558763 0 0 -0.21951,-0.62191 l -6.14311,0 a 2.8068692,2.8068692 160.55861 0 0 -1.76195,0.62191 z"
       id="path22"
       inkscape:path-effect="#path-effect25"
       inkscape:original-d="m 249.38564,173.7439 -3.95583,3.18999 a 2.550255,2.550255 0 0 0 0,3.97082 l 8.33386,6.72103 -8.33386,6.72052 a 2.550255,2.550255 0 0 0 0,3.96875 l 7.15046,5.76606 h 7.61039 a 2.550255,2.550255 0 0 0 -0.76326,-1.02991 l -8.33592,-6.72052 8.33592,-6.72104 a 2.550255,2.550255 0 0 0 0,-3.9703 l -8.33386,-6.72104 6.41667,-5.17436 z" /><path
       style="font-variation-settings:normal;opacity:1;vector-effect:none;fill:#ffffff;fill-opacity:1;stroke:#000000;stroke-width:3;stroke-linecap:butt;stroke-linejoin:round;stroke-miterlimit:4;stroke-dasharray:none;stroke-dashoffset:0;stroke-opacity:1;-inkscape-stroke:none;paint-order:stroke markers fill;stop-color:#000000;stop-opacity:1"
       d="m 210.64379,174.36333 c -0.0714,0.82313 0.26133,1.64662 0.91935,2.18867 l 8.33386,6.72052 -8.33386,6.72052 c -1.26448,1.02076 -1.26448,2.94799 0,3.96875 l 8.33386,6.72104 -3.0015,2.42034 a 0.54986532,0.54986532 70.559055 0 0 0.34516,0.9779 h 5.75859 a 2.2952403,2.2952403 160.5581 0 0 1.44082,-0.50858 l 1.12067,-0.90374 c 1.26577,-1.02078 1.26577,-2.94952 0,-3.9703 l -8.33593,-6.72103 8.33593,-6.72052 c 1.2662,-1.02079 1.2662,-2.95003 0,-3.97082 -2.86843,-2.43448 -5.95639,-4.61635 -8.76468,-7.12084 -0.25903,-0.23102 -0.75065,-0.42134 -1.10143,-0.42134 l -4.28285,0 c -0.35078,0 -0.73775,0.27086 -0.76799,0.61943 z"
       id="path21"
       sodipodi:nodetypes="ccccccccccccccc"
       inkscape:path-effect="#path-effect24"
       inkscape:original-d="m 210.77663,173.7439 c -0.35165,1.00838 -0.0378,2.12907 0.78651,2.8081 l 8.33386,6.72052 -8.33386,6.72052 c -1.26448,1.02076 -1.26448,2.94799 0,3.96875 l 8.33386,6.72104 -4.21421,3.39824 h 8.12663 l 1.75132,-1.41232 c 1.26577,-1.02078 1.26577,-2.94952 0,-3.9703 l -8.33593,-6.72103 8.33593,-6.72052 c 1.2662,-1.02079 1.2662,-2.95003 0,-3.97082 -3.0281,-2.56999 -6.30085,-4.85847 -9.23096,-7.54218 z" /><path
       style="font-variation-settings:normal;opacity:1;vector-effect:none;fill:#ffffff;fill-opacity:1;stroke:#000000;stroke-width:3;stroke-linecap:butt;stroke-linejoin:round;stroke-miterlimit:4;stroke-dasharray:none;stroke-dashoffset:0;stroke-opacity:1;-inkscape-stroke:none;paint-order:stroke markers fill;stop-color:#000000;stop-opacity:1"
       d="m 180.61442,174.55176 5.41591,4.36754 -8.33386,6.72103 c -1.26448,1.02076 -1.26448,2.94799 0,3.96875 l 8.33386,6.72052 -8.33386,6.72053 c -0.10294,0.092 -0.19788,0.19188 -0.28407,0.29854 -0.29198,0.36129 -0.0353,0.7324 0.4314,0.7324 l 5.50149,0 a 3.3992814,3.3992814 160.55833 0 0 2.13386,-0.75319 l 6.21492,-5.01183 c 1.2662,-1.02079 1.2662,-2.95003 0,-3.97082 l -8.33593,-6.72052 8.33593,-6.72104 c 1.26619,-1.02079 1.26619,-2.95002 0,-3.97081 l -2.95251,-2.38108 a 3.645858,3.645858 19.442356 0 0 -2.28871,-0.80788 h -5.55327 a 0.45425916,0.45425916 109.44183 0 0 -0.28516,0.80786 z"
       id="path20"
       inkscape:path-effect="#path-effect23"
       inkscape:original-d="m 179.61264,173.7439 6.41769,5.1754 -8.33386,6.72103 a 2.550255,2.550255 0 0 0 0,3.96875 l 8.33386,6.72052 -8.33386,6.72053 a 2.550255,2.550255 0 0 0 -0.69763,1.03094 h 7.54631 l 7.14892,-5.76502 a 2.550255,2.550255 0 0 0 0,-3.97082 l -8.33593,-6.72052 8.33593,-6.72104 a 2.550255,2.550255 0 0 0 0,-3.97081 l -3.95428,-3.18896 z" /><path
       style="opacity:1;fill:#ffffff;stroke:#000000;stroke-linecap:butt;stroke-linejoin:round;paint-order:stroke markers fill;font-variation-settings:normal;vector-effect:none;fill-opacity:1;stroke-width:3;stroke-miterlimit:4;stroke-dasharray:none;stroke-dashoffset:0;stroke-opacity:1;-inkscape-stroke:none;stop-color:#000000;stop-opacity:1"
       d="m 152.60592,174.20255 c -2.91243,2.37655 -5.84786,4.72498 -8.77405,7.08456 -1.26448,1.02076 -1.26448,2.94799 0,3.96875 l 8.33438,6.72052 -8.33438,6.72104 c -1.26577,1.02078 -1.26577,2.94952 0,3.9703 l 0.73548,0.59302 a 3.7029932,3.7029932 19.439724 0 0 2.32431,0.82033 h 4.6862 a 0.75236947,0.75236947 109.44227 0 0 0.4723,-1.33802 l -2.55403,-2.05971 8.33386,-6.72052 c 1.26619,-1.02079 1.26619,-2.95002 0,-3.97081 l -8.33593,-6.72052 8.33593,-6.72052 c 0.57043,-0.46518 0.8994,-1.14132 0.93535,-1.84731 0.0272,-0.53466 -0.57257,-0.95976 -1.1112,-0.95976 h -3.76199 c -0.40034,0 -0.97605,0.20554 -1.28623,0.45865 z"
       id="path15"
       inkscape:path-effect="#path-effect22"
       inkscape:original-d="m 153.16726,173.7439 c -3.09635,2.53333 -6.2211,5.03196 -9.33539,7.54321 -1.26448,1.02076 -1.26448,2.94799 0,3.96875 l 8.33438,6.72052 -8.33438,6.72104 c -1.26577,1.02078 -1.26577,2.94952 0,3.9703 l 1.75287,1.41335 h 8.12457 l -4.21318,-3.39773 8.33386,-6.72052 c 1.26619,-1.02079 1.26619,-2.95002 0,-3.97081 l -8.33593,-6.72052 8.33593,-6.72052 c 0.8285,-0.67564 1.14765,-1.79631 0.79943,-2.80707 z"
       sodipodi:nodetypes="ccccccccccccccc" /><rect
       style="font-variation-settings:normal;vector-effect:none;fill:#ffffff;fill-opacity:1;stroke:#000000;stroke-width:3;stroke-linecap:butt;stroke-linejoin:round;stroke-miterlimit:4;stroke-dasharray:none;stroke-dashoffset:0;stroke-opacity:1;-inkscape-stroke:none;paint-order:stroke markers fill;stop-color:#000000"
       id="rect16"
       width="5.4666667"
       height="30.3375"
       x="215.83041"
       y="106.0104" /><path
       id="rect25"
       style="font-variation-settings:normal;vector-effect:none;fill:#ffffff;fill-opacity:1;stroke:#000000;stroke-width:3;stroke-linecap:butt;stroke-linejoin:round;stroke-miterlimit:4;stroke-dasharray:none;stroke-dashoffset:0;stroke-opacity:1;-inkscape-stroke:none;paint-order:stroke markers fill;stop-color:#000000"
       d="M 148.09725 139.87724 L 148.09725 166.12783 L 140.9845 167.00891 L 140.9845 170.2144 L 148.09725 169.33332 L 148.09725 170.2144 L 153.56358 170.2144 L 153.56358 168.65636 L 160.67581 167.77579 L 160.67581 164.56979 L 153.56358 165.45087 L 153.56358 139.87724 L 148.09725 139.87724 z " /><path
       id="rect26"
       style="font-variation-settings:normal;vector-effect:none;fill:#ffffff;fill-opacity:1;stroke:#000000;stroke-width:3;stroke-linecap:butt;stroke-linejoin:round;stroke-miterlimit:4;stroke-dasharray:none;stroke-dashoffset:0;stroke-opacity:1;-inkscape-stroke:none;paint-order:stroke markers fill;stop-color:#000000"
       d="M 181.96391 139.87724 L 181.96391 157.65083 L 174.85117 157.89112 L 174.85117 161.09661 L 181.96391 160.85632 L 181.96391 170.2144 L 187.43025 170.2144 L 187.43025 160.67183 L 194.54299 160.43154 L 194.54299 157.22605 L 187.43025 157.46634 L 187.43025 139.87724 L 181.96391 139.87724 z " /><path
       id="rect27"
       style="font-variation-settings:normal;vector-effect:none;fill:#ffffff;fill-opacity:1;stroke:#000000;stroke-width:3;stroke-linecap:butt;stroke-linejoin:round;stroke-miterlimit:4;stroke-dasharray:none;stroke-dashoffset:0;stroke-opacity:1;-inkscape-stroke:none;paint-order:stroke markers fill;stop-color:#000000"
       d="M 215.83058 139.87724 L 215.83058 149.20432 L 208.71784 148.88392 L 208.71784 152.08993 L 215.83058 152.41032 L 215.83058 170.2144 L 221.29691 170.2144 L 221.29691 152.6563 L 228.40966 152.9767 L 228.40966 149.77069 L 221.29691 149.4503 L 221.29691 139.87724 L 215.83058 139.87724 z " /><path
       id="rect28"
       style="font-variation-settings:normal;vector-effect:none;fill:#ffffff;fill-opacity:1;stroke:#000000;stroke-width:3;stroke-linecap:butt;stroke-linejoin:round;stroke-miterlimit:4;stroke-dasharray:none;stroke-dashoffset:0;stroke-opacity:1;-inkscape-stroke:none;paint-order:stroke markers fill;stop-color:#000000"
       d="M 242.5845 139.87724 L 242.5845 143.08273 L 249.69725 143.96381 L 249.69725 170.2144 L 255.16358 170.2144 L 255.16358 144.64077 L 262.27632 145.52185 L 262.27632 142.31585 L 255.16358 141.43476 L 255.16358 139.87724 L 249.69725 139.87724 L 249.69725 140.75832 L 242.5845 139.87724 z " /><path
       id="path35"
       style="font-variation-settings:normal;vector-effect:none;fill:#ffffff;fill-opacity:1;stroke:#000000;stroke-width:3;stroke-linecap:butt;stroke-linejoin:round;stroke-miterlimit:4;stroke-dasharray:none;stroke-dashoffset:0;stroke-opacity:1;-inkscape-stroke:none;paint-order:stroke markers fill;stop-color:#000000"
       d="m 249.69725,136.34774 v -4.59507 h -4.40438 v -3.61166 h 4.40438 v -12.9186 h -4.40438 v -3.61166 h 4.40438 v -5.60018 h 1.8154 3.65094 4.40438 v 3.61167 h -4.40438 v 12.91807 h 4.40438 v 3.61167 h -4.40438 v 10.19576 z" /></g></svg>
